<svg class="img-fluid" id="outputsvg" xmlns="http://www.w3.org/2000/svg" style="transform: matrix(1.69, 0, 0, 1.69, -41.3433, 1.35288); transform-origin: 50% 50%; cursor: move; max-height: none; transition: none;" width="1024" height="1024" viewBox="0 0 10240 10240"><g id="l404uAL1JDHhgFMxpBkanPz" fill="rgb(215,19,21)" style="transform: none;"><g style="transform: none;"><path id="p1EvTB38c4" d="M4005 8464 c-91 -19 -237 -92 -297 -148 -27 -25 -48 -47 -48 -49 0 -5 128 -107 134 -107 3 0 34 22 70 49 101 77 159 96 291 95 90 0 120 -4 167 -23 65 -25 128 -81 158 -142 28 -54 50 -158 50 -237 l0 -64 -33 43 c-77 101 -193 152 -347 152 -180 0 -338 -79 -433 -220 -68 -98 -90 -167 -95 -293 -7 -175 39 -300 153 -416 188 -192 510 -208 708 -34 l47 42 0 -76 0 -76 91 0 90 0 -4 553 c-3 474 -6 560 -20 606 -43 144 -123 244 -237 299 -125 59 -296 77 -445 46z m275 -616 c132 -40 214 -135 240 -278 31 -171 -41 -340 -174 -407 -40 -20 -70 -27 -142 -31 -148 -8 -246 34 -317 134 -55 78 -70 128 -71 234 0 82 3 103 26 151 36 78 89 133 162 169 93 46 185 55 276 28z"></path><path id="pNTdjSUb7" d="M2970 8059 c-231 -21 -398 -159 -466 -385 -24 -79 -24 -245 0 -334 89 -329 432 -484 742 -335 168 81 254 236 254 457 l0 98 -410 0 c-321 0 -410 3 -410 13 1 67 65 194 122 242 139 117 373 107 518 -22 l44 -40 57 46 c32 25 58 50 58 54 1 13 -92 108 -129 132 -92 58 -240 87 -380 74z m330 -696 c0 -78 -67 -175 -150 -218 -78 -40 -201 -39 -288 2 -72 34 -146 135 -166 226 l-6 27 305 0 305 0 0 -37z"></path><path id="pi2y52GRG" d="M1758 8050 c-70 -12 -145 -38 -218 -76 -72 -38 -181 -121 -179 -138 1 -6 30 -38 65 -70 l64 -59 49 46 c143 134 387 167 544 73 115 -69 140 -218 52 -315 -49 -54 -110 -83 -285 -135 -189 -57 -265 -93 -329 -155 -87 -85 -124 -197 -103 -311 24 -131 93 -219 215 -275 93 -42 156 -55 274 -55 110 0 202 20 284 60 66 34 159 106 159 123 -1 6 -28 41 -60 76 l-60 64 -44 -41 c-134 -123 -354 -148 -487 -56 -77 53 -103 169 -56 248 37 60 94 90 285 152 210 67 292 107 361 177 116 117 141 272 67 432 -79 174 -344 278 -598 235z"></path><path id="pMnDdzNrE" d="M5178 8045 c-101 -28 -170 -77 -215 -152 -53 -90 -56 -118 -60 -540 l-5 -393 96 0 96 0 0 333 c0 182 5 361 10 396 12 83 51 148 110 181 39 22 57 25 140 25 87 0 101 -3 161 -32 80 -39 150 -111 187 -191 l27 -57 3 -327 3 -328 95 0 94 0 0 540 0 540 -90 0 -90 0 0 -81 0 -82 -39 45 c-44 50 -137 103 -215 124 -64 17 -245 17 -308 -1z"></path><path id="pzfRQVjBq" d="M7141 8044 c-243 -65 -401 -274 -401 -530 1 -267 166 -486 415 -549 75 -19 211 -19 293 0 198 47 355 202 407 402 19 73 19 232 0 303 -50 190 -207 341 -393 379 -74 15 -256 13 -321 -5z m317 -176 c195 -73 280 -332 176 -540 -91 -180 -308 -255 -490 -169 -184 88 -262 334 -169 538 25 56 94 132 144 157 95 50 230 55 339 14z"></path><path id="p4MNhIab8" d="M8206 8045 c-73 -20 -173 -74 -225 -121 l-45 -41 58 -66 59 -66 46 41 c104 92 266 131 393 94 63 -18 121 -73 133 -125 15 -67 -32 -132 -115 -160 -19 -7 -95 -25 -168 -41 -73 -16 -160 -41 -193 -56 -152 -68 -210 -232 -133 -375 65 -118 199 -179 392 -179 134 0 250 38 344 112 43 34 44 32 -30 112 l-43 47 -61 -41 c-82 -54 -152 -74 -247 -68 -146 9 -235 94 -190 181 32 63 94 91 259 122 231 42 329 105 367 234 50 175 -63 342 -270 397 -66 18 -265 17 -331 -1z"></path><path id="p1AtM8N4Ct" d="M6120 7506 l0 -535 90 -3 90 -3 0 95 0 95 27 -35 c40 -52 103 -110 144 -130 48 -25 154 -43 209 -35 84 12 81 5 47 104 l-30 89 -51 -5 c-127 -13 -239 42 -289 140 -48 97 -59 192 -55 493 l3 264 -92 0 -93 0 0 -534z"></path><path id="p1B1qyc1kV" d="M8035 6534 c-114 -23 -125 -26 -125 -41 0 -13 8 -14 48 -9 129 19 151 19 158 2 3 -9 17 -16 30 -16 28 0 29 2 9 40 -14 26 -21 30 -58 29 -23 -1 -51 -3 -62 -5z"></path><path id="pnKgHQ10X" d="M4438 6363 c-10 -2 -18 -11 -18 -19 0 -11 19 -14 90 -14 70 0 90 3 90 14 0 7 -10 16 -22 20 -26 6 -114 6 -140 -1z"></path><path id="p847wBUmi" d="M7348 6363 c-10 -2 -18 -11 -18 -19 0 -11 17 -14 80 -14 61 0 80 3 80 14 0 22 -86 34 -142 19z"></path><path id="p1HRmH8AEc" d="M4280 6344 c-97 -18 -182 -46 -188 -61 -2 -9 8 -13 32 -13 20 0 36 3 36 8 0 7 95 26 198 39 32 4 42 10 42 24 0 22 -13 23 -120 3z"></path><path id="pUF2Ng0e9" d="M7255 6355 c-5 -2 -36 -9 -67 -15 -38 -8 -58 -16 -58 -26 0 -17 13 -17 112 -2 64 10 78 16 78 30 0 13 -8 18 -27 17 -16 0 -32 -2 -38 -4z"></path><path id="p1Hhcaf7Iw" d="M3310 6313 c0 -34 12 -63 26 -63 10 0 14 13 14 40 0 33 -3 40 -20 40 -12 0 -20 -7 -20 -17z"></path><path id="pHrvFSUHl" d="M5347 6310 c3 -11 12 -20 19 -20 8 0 14 9 14 20 0 13 -7 20 -19 20 -14 0 -18 -5 -14 -20z"></path><path id="pghyfFMXi" d="M8220 6316 c0 -7 9 -16 21 -19 15 -4 19 -2 15 10 -3 8 -6 17 -6 19 0 2 -7 4 -15 4 -8 0 -15 -6 -15 -14z"></path><path id="pqnb8DbQr" d="M7043 6295 c-43 -18 -42 -35 2 -35 31 0 35 3 35 25 0 14 -1 25 -2 25 -2 -1 -18 -7 -35 -15z"></path><path id="pOekjOdfp" d="M3971 6236 c-15 -18 -4 -66 15 -66 10 0 14 12 14 40 0 42 -9 50 -29 26z"></path><path id="p7VMgjpb8" d="M4930 6223 c0 -20 11 -40 38 -66 21 -20 43 -37 50 -37 7 0 12 -9 12 -20 0 -11 5 -20 10 -20 6 0 10 -7 10 -15 0 -9 9 -15 25 -15 32 0 32 8 -6 61 -40 56 -77 95 -111 121 l-28 19 0 -28z"></path><path id="p4LvM0aV2" d="M7960 6240 c0 -5 -7 -10 -15 -10 -10 0 -15 -10 -15 -30 0 -24 4 -30 23 -30 14 0 18 3 10 8 -8 5 1 16 27 32 49 30 50 40 5 40 -19 0 -35 -4 -35 -10z"></path><path id="p1AqjympWy" d="M6811 6130 c-57 -57 -141 -166 -141 -181 0 -5 11 -9 25 -9 16 0 25 6 25 15 0 8 5 15 10 15 6 0 10 9 10 20 0 11 7 20 15 20 10 0 15 11 15 35 0 32 3 35 28 35 39 0 75 39 70 76 l-3 29 -54 -55z"></path><path id="pRV8ZXquM" d="M8050 6054 c0 -27 5 -37 20 -41 11 -3 20 -14 20 -24 0 -14 7 -19 25 -19 14 0 25 4 25 9 0 10 -78 111 -85 111 -3 0 -5 -16 -5 -36z"></path><path id="pDSskuurN" d="M4530 6066 c0 -8 14 -17 33 -21 50 -10 89 -26 125 -53 l32 -24 0 31 c0 26 -4 31 -25 31 -16 0 -25 6 -25 15 0 10 -11 15 -35 15 -19 0 -35 5 -35 10 0 6 -16 10 -35 10 -24 0 -35 -5 -35 -14z"></path><path id="p0GyqYcYc" d="M3970 6028 c0 -48 10 -78 26 -78 10 0 14 15 14 55 0 48 -2 55 -20 55 -16 0 -20 -7 -20 -32z"></path><path id="pq090BezA" d="M7430 6046 c0 -9 1 -16 3 -16 2 0 30 -5 63 -11 63 -11 155 -53 210 -96 l34 -25 0 31 c0 28 -3 31 -30 31 -23 0 -30 4 -30 20 0 15 -9 22 -30 27 -16 3 -30 9 -30 14 0 5 -13 9 -29 9 -16 0 -31 4 -33 10 -1 5 -31 13 -65 16 -54 6 -63 5 -63 -10z"></path><path id="pymacPm31" d="M5910 6016 c0 -22 34 -26 228 -26 175 0 182 1 182 20 0 19 -7 20 -205 20 -168 0 -205 -3 -205 -14z"></path><path id="p5YJ9tvsI" d="M6390 6010 c0 -13 7 -20 20 -20 13 0 20 7 20 20 0 13 -7 20 -20 20 -13 0 -20 -7 -20 -20z"></path><path id="palEFgv6C" d="M7150 5980 c0 -16 -7 -20 -30 -20 -27 0 -30 -3 -30 -30 l0 -29 65 42 c35 23 64 45 65 50 0 4 -16 7 -35 7 -28 0 -35 -4 -35 -20z"></path><path id="pFxVbu2mG" d="M4742 5900 c6 -22 16 -40 24 -40 10 0 14 13 14 40 0 36 -3 40 -24 40 -23 0 -23 -2 -14 -40z"></path><path id="p13PN9GPmk" d="M3980 5904 l0 -25 30 18 c17 9 30 21 30 25 0 4 -13 8 -30 8 -26 0 -30 -4 -30 -26z"></path><path id="pVswZU4i1" d="M5110 5871 c0 -26 -3 -76 -6 -110 -6 -51 -4 -61 9 -61 16 0 21 16 33 102 8 61 -2 118 -21 118 -11 0 -15 -13 -15 -49z"></path><path id="p1DLL49oUq" d="M6960 5744 c0 -44 18 -42 37 4 13 31 12 32 -12 32 -22 0 -25 -4 -25 -36z"></path><path id="p1Ac9BJhuA" d="M7860 5698 c10 -35 21 -80 25 -100 4 -24 11 -38 20 -38 20 0 19 42 -1 131 -14 61 -18 69 -39 69 l-23 0 18 -62z"></path><path id="pMt5CBRTj" d="M4466 5657 c-141 -50 -118 -81 26 -35 58 19 68 25 68 45 0 13 -1 23 -2 22 -2 0 -43 -15 -92 -32z"></path><path id="pdKAJtPf3" d="M6926 5644 c-10 -77 -8 -114 8 -114 15 0 21 19 31 108 6 47 5 52 -13 52 -15 0 -21 -9 -26 -46z"></path><path id="pvAseDADL" d="M5070 5644 c0 -44 18 -42 37 4 13 31 12 32 -12 32 -22 0 -25 -4 -25 -36z"></path><path id="pG4h3GvWh" d="M6554 5535 c-9 -47 3 -105 21 -105 12 0 15 15 15 70 0 55 -3 70 -15 70 -8 0 -17 -14 -21 -35z"></path><path id="pz1qis0oA" d="M8240 5505 c0 -41 4 -55 14 -55 18 0 29 48 20 84 -3 14 -12 26 -20 26 -10 0 -14 -15 -14 -55z"></path><path id="pxfWWz5Hp" d="M4960 5525 c0 -8 -9 -15 -20 -15 -11 0 -20 -4 -20 -10 0 -5 -7 -10 -15 -10 -9 0 -15 -9 -15 -25 0 -14 4 -25 9 -25 10 0 131 87 131 95 0 3 -16 5 -35 5 -24 0 -35 -5 -35 -15z"></path><path id="p10Tgo2WDf" d="M6290 5455 c0 -57 3 -75 14 -75 17 0 26 31 26 98 0 45 -3 52 -20 52 -18 0 -20 -7 -20 -75z"></path><path id="p3sc3i3px" d="M4031 5414 c-27 -35 -26 -44 4 -44 22 0 25 4 25 35 0 19 -2 35 -4 35 -3 0 -14 -12 -25 -26z"></path><path id="p7sAypoby" d="M6565 5353 c12 -85 27 -133 41 -133 17 0 17 20 2 110 -10 58 -15 70 -31 70 -17 0 -19 -5 -12 -47z"></path><path id="pcqdBTBfO" d="M8230 5377 c0 -12 -9 -55 -20 -95 -22 -78 -25 -122 -10 -122 15 0 29 33 50 122 25 105 25 118 0 118 -14 0 -20 -7 -20 -23z"></path><path id="pBUQAq4KR" d="M4370 5240 l0 -30 35 22 c44 29 44 38 0 38 -32 0 -35 -2 -35 -30z"></path><path id="p19OdKt7O7" d="M7803 5185 l-42 -65 29 0 c27 0 30 3 30 30 0 23 4 30 20 30 16 0 20 7 20 35 0 19 -3 35 -7 35 -5 -1 -27 -30 -50 -65z"></path><path id="pGCUiUBAp" d="M3954 5114 c8 -77 36 -166 54 -172 17 -5 15 41 -3 102 -8 27 -15 69 -15 93 0 37 -3 43 -21 43 -21 0 -21 -3 -15 -66z"></path><path id="pbwhNjLCS" d="M4310 5145 c0 -40 24 -49 34 -12 10 37 7 47 -14 47 -16 0 -20 -7 -20 -35z"></path><path id="pxd6n5vPr" d="M7040 5146 c0 -33 2 -36 31 -36 l30 0 -21 30 c-31 44 -40 45 -40 6z"></path><path id="pwnZaMZ20" d="M5020 5099 c-8 -5 -45 -23 -82 -39 -75 -33 -86 -50 -33 -50 24 0 35 5 35 15 0 10 10 15 33 15 37 0 77 28 77 54 0 18 -8 19 -30 5z"></path><path id="pE2qNB4fs" d="M4775 5005 c-44 -13 -97 -26 -117 -30 -24 -4 -38 -11 -38 -20 0 -21 45 -19 151 6 82 19 89 23 89 45 0 13 -1 23 -2 23 -2 -1 -39 -12 -83 -24z"></path><path id="pyPAuQ9QK" d="M7560 5009 c-30 -9 -72 -20 -92 -24 -49 -8 -52 -35 -5 -35 30 0 146 26 155 35 2 2 2 12 0 23 -3 18 -4 18 -58 1z"></path><path id="p10Nu9PdmM" d="M6776 4916 c16 -26 95 -95 152 -135 l32 -22 0 30 c0 20 -5 31 -14 31 -8 0 -16 7 -20 15 -3 8 -17 15 -31 15 -17 0 -25 5 -25 18 0 27 -52 72 -83 72 -27 0 -27 -1 -11 -24z"></path><path id="pGE7tsh4Y" d="M8002 4917 c-12 -13 -22 -33 -22 -45 0 -18 -6 -22 -30 -22 -20 0 -30 -5 -30 -15 0 -8 -9 -15 -20 -15 -11 0 -20 -4 -20 -10 0 -5 -7 -10 -15 -10 -9 0 -15 -9 -15 -25 0 -14 3 -25 8 -25 21 0 183 130 206 165 16 25 16 25 -12 25 -17 0 -37 -9 -50 -23z"></path><path id="pNPDtgF8w" d="M4063 4849 c13 -18 56 -56 110 -98 15 -12 17 -10 17 18 0 28 -3 31 -30 31 -25 0 -30 4 -30 23 0 31 -18 47 -53 47 -26 0 -27 -1 -14 -21z"></path><path id="pUC9uldbo" d="M5020 4790 c0 -5 -9 -10 -20 -10 -15 0 -20 -7 -20 -25 0 -22 3 -23 23 -15 12 6 30 13 40 16 24 9 22 44 -3 44 -11 0 -20 -4 -20 -10z"></path><path id="pjdCbximI" d="M6970 4761 c0 -15 127 -71 209 -92 95 -24 111 -24 111 1 0 14 -7 20 -24 20 -13 0 -53 9 -88 20 -34 11 -75 20 -90 20 -17 0 -28 5 -28 14 0 8 -7 17 -16 20 -24 9 -74 7 -74 -3z"></path><path id="p18vJP9CBj" d="M4240 4720 c0 -18 87 -49 178 -65 118 -21 142 -20 142 5 0 17 -7 20 -42 20 -53 0 -208 31 -208 42 0 4 -16 8 -35 8 -19 0 -35 -5 -35 -10z"></path><path id="p106TRwcBG" d="M7300 4666 c0 -19 32 -26 120 -26 88 0 120 7 120 26 0 11 -24 14 -120 14 -96 0 -120 -3 -120 -14z"></path><path id="p1DOBSjwy3" d="M5174 4263 c-9 -99 2 -415 21 -603 52 -500 155 -837 416 -1360 90 -180 299 -558 342 -620 11 -17 34 -6 262 126 138 79 257 147 265 152 12 7 14 31 12 123 -20 784 -265 1398 -748 1871 -106 104 -191 173 -301 245 -79 51 -241 142 -255 143 -3 0 -10 -35 -14 -77z m546 -758 c238 -317 377 -684 435 -1155 25 -206 31 -187 -83 -253 -55 -31 -101 -57 -104 -57 -20 0 -183 464 -243 690 -61 231 -118 613 -128 857 l-2 62 28 -27 c16 -15 59 -67 97 -117z"></path><path id="pAgudyXv4" d="M4521 3973 c-319 -321 -525 -663 -646 -1071 -68 -229 -105 -477 -120 -798 l-6 -132 288 -159 c158 -88 467 -260 686 -382 l398 -222 259 148 c143 81 258 151 257 154 -4 12 -214 229 -221 229 -4 0 -55 -28 -114 -62 -59 -34 -124 -71 -146 -82 l-38 -21 -67 36 c-36 20 -181 100 -321 179 -140 78 -344 192 -454 253 l-198 111 7 85 c34 434 135 778 316 1078 30 49 55 81 57 72 13 -45 143 -341 194 -444 149 -297 372 -623 617 -904 90 -104 186 -205 437 -462 89 -91 174 -185 189 -207 15 -23 31 -42 36 -42 22 0 -363 701 -632 1151 -203 340 -367 701 -494 1082 -55 168 -135 471 -135 513 0 13 -5 24 -11 24 -6 0 -68 -57 -138 -127z"></path></g></g><g id="l4tKs2so3QRQlMvtWcfpiAl" fill="rgb(0,26,183)" style="transform: none;"><g style="transform: none;"><path id="p1FLHoR6AM" d="M7946 6515 c-48 -13 -63 -22 -221 -123 l-81 -52 -59 11 c-91 17 -332 6 -429 -20 -127 -34 -217 -84 -313 -175 -132 -124 -196 -224 -248 -386 -24 -72 -28 -107 -32 -230 -6 -188 15 -303 82 -437 70 -142 226 -298 370 -370 120 -61 185 -75 362 -81 185 -5 259 5 376 50 230 89 406 283 483 533 26 84 28 102 28 270 0 171 -1 184 -28 265 -52 155 -120 264 -229 367 -54 51 -54 52 -33 66 61 41 158 81 218 91 l67 11 -57 110 -57 110 -75 2 c-41 1 -97 -5 -124 -12z m-421 -500 c86 -23 152 -62 220 -130 103 -104 145 -212 145 -375 0 -232 -86 -388 -263 -475 -106 -52 -184 -63 -289 -41 -153 33 -257 113 -320 246 -48 101 -62 166 -62 290 -1 157 44 271 146 373 106 104 277 150 423 112z"></path><path id="pTTAch4gJ" d="M4295 6344 c-97 -17 -198 -47 -273 -80 l-55 -24 7 -172 c4 -95 8 -174 10 -176 2 -2 36 13 75 33 131 66 274 107 416 121 164 15 288 -73 270 -192 -13 -87 -78 -130 -320 -214 -307 -106 -417 -197 -460 -383 -12 -53 -13 -84 -6 -149 17 -144 50 -208 157 -307 123 -113 245 -153 464 -154 115 0 149 4 235 26 55 15 133 43 174 62 l74 35 -6 122 c-4 67 -7 143 -7 170 l0 48 -37 -18 c-278 -140 -563 -162 -647 -49 -13 17 -20 43 -20 75 -2 94 48 131 294 217 307 108 418 187 476 340 15 40 19 76 19 180 0 123 -2 133 -29 189 -17 35 -60 92 -104 138 -84 87 -163 133 -283 162 -82 20 -310 20 -424 0z"></path><path id="pD3zxa8eR" d="M2200 5505 l0 -825 200 0 200 0 0 320 0 320 360 0 360 0 0 -320 0 -320 200 0 200 0 0 825 0 825 -200 0 -200 0 0 -335 0 -335 -360 0 -360 0 0 335 0 335 -200 0 -200 0 0 -825z"></path><path id="pF6vcfczl" d="M5350 5505 l0 -825 525 0 525 0 0 165 0 165 -335 0 -335 0 0 165 0 165 293 0 294 0 6 122 c4 66 7 138 7 160 l0 38 -295 0 -295 0 0 171 0 172 343 -4 342 -4 3 168 2 167 -540 0 -540 0 0 -825z"></path></g></g></svg>